<?xml version="1.0" encoding="UTF-8"?>
<svg id="Layer_2" data-name="Layer 2" xmlns="http://www.w3.org/2000/svg" viewBox="0 0 37.88 39">
  <defs>
    <style>
      .cls-1 {
        fill: #6d6e71;
      }
    </style>
  </defs>
  <g id="Layer_5" data-name="Layer 5">
    <g>
      <path class="cls-1" d="M36.88,39H1c-.6,0-1.06-.52-.99-1.12L3.46,8.88c.06-.5,.49-.88,.99-.88h28.97c.51,0,.93,.38,.99,.88l3.45,29c.07,.59-.39,1.12-.99,1.12Zm-34.75-1H35.75c.6,0,1.06-.52,.99-1.12l-3.21-27c-.06-.5-.49-.88-.99-.88H5.34c-.51,0-.93,.38-.99,.88L1.13,36.88c-.07,.59,.39,1.12,.99,1.12Z"/>
      <path class="cls-1" d="M26.44,14.07c-2.5-.07,0-7.57,0-7.57,0-3.03-2.47-5.5-5.5-5.5h-4c-3.03,0-5.5,2.47-5.5,5.5,0,0,2.5,7.63,0,7.57s-1-7.57-1-7.57c0-3.58,2.92-6.5,6.5-6.5h4c3.58,0,6.5,2.92,6.5,6.5,0,0,1.5,7.63-1,7.57Z"/>
    </g>
  </g>
</svg>