<?xml version="1.0" encoding="UTF-8"?>
<svg id="Layer_2" data-name="Layer 2" xmlns="http://www.w3.org/2000/svg" viewBox="0 0 38.21 36.24">
  <defs>
    <style>
      .cls-1 {
        fill: #6d6e71;
      }
    </style>
  </defs>
  <g id="Layer_4" data-name="Layer 4">
    <path class="cls-1" d="M28.52,1c.19,0,.39,0,.58,.02,4.04,.27,7.42,3.5,7.86,7.51,.39,3.53,.31,6.04-1.28,8.42-1.95,2.92-3.85,4.83-5.9,6.88l-10.21,11.04-.06,.06-.04,.07c-.1,.15-.27,.25-.46,.25s-.36-.09-.46-.25l-.04-.07-.05-.06-9.15-9.98c-.69-1.02-1.61-1.97-2.58-2.97-1.15-1.19-2.35-2.42-3.38-3.97C1.6,15.31,.73,11.7,1.08,8.53,1.52,4.52,4.9,1.29,8.94,1.02c.2-.01,.39-.02,.58-.02,3.28,0,6.3,1.92,7.7,4.89,.33,.71,1.02,1.15,1.8,1.15s1.47-.44,1.8-1.15c1.4-2.97,4.42-4.89,7.7-4.89m0-1c-3.81,0-7.09,2.24-8.6,5.47-.18,.38-.54,.57-.9,.57s-.72-.19-.9-.57C16.61,2.24,13.33,0,9.52,0c-.22,0-.43,0-.65,.02C4.36,.32,.58,3.92,.08,8.42c-.39,3.54,.66,7.4,2.44,10.08,2,3,4.6,4.89,6,7l9.21,10.04c.29,.43,.77,.7,1.29,.7s1.01-.26,1.29-.7l10.21-11.04c2-2,4-4,6-7s1.83-5.54,1.44-9.08C37.47,3.92,33.69,.32,29.17,.02c-.22-.01-.44-.02-.65-.02h0Z"/>
  </g>
</svg>