<?xml version="1.0" encoding="UTF-8"?>
<svg id="Layer_2" data-name="Layer 2" xmlns="http://www.w3.org/2000/svg" viewBox="0 0 34.11 34.78">
  <defs>
    <style>
      .cls-1 {
        fill: #a7a9ac;
      }
    </style>
  </defs>
  <g id="Layer_2-2" data-name="Layer 2">
    <path class="cls-1" d="M34.11,32.35l-6.92-8.25c-.54-.65-.61-1.57-.18-2.3,1.63-2.77,2.38-6.13,1.8-9.68C27.79,5.86,22.64,.89,16.34,.11,7.19-1.02-.58,6.44,.03,15.51c.47,6.92,5.95,12.65,12.84,13.4,3.44,.38,6.67-.46,9.32-2.13,.86-.54,1.98-.4,2.64,.38l6.39,7.62,2.89-2.42ZM3,14.5C3,8.16,8.16,3,14.5,3s11.5,5.16,11.5,11.5-5.16,11.5-11.5,11.5S3,20.84,3,14.5Z"/>
  </g>
</svg>